<?xml version="1.0" encoding="utf-8"?>
<!-- Generator: Adobe Illustrator 24.2.0, SVG Export Plug-In . SVG Version: 6.00 Build 0)  -->
<svg version="1.1" id="Layer_1" xmlns="http://www.w3.org/2000/svg" xmlns:xlink="http://www.w3.org/1999/xlink" x="0px" y="0px"
	 viewBox="0 0 527 1209" style="enable-background:new 0 0 527 1209;" xml:space="preserve">
<style type="text/css">
	.st0{fill:#C4C4C4;filter:url(#Adobe_OpacityMaskFilter);}
	.st1{mask:url(#mask0_134_78_1_);}
	.st2{fill:none;stroke:#AD8BD6;stroke-width:10;}
	.st3{fill:none;stroke:#86DBFE;stroke-width:10;}
	.st4{fill:none;stroke:#51F1D2;stroke-width:10;}
	.st5{fill:none;stroke:#FDFAD4;stroke-width:10;}
	.st6{fill:none;stroke:#FB91C9;stroke-width:10;}
	.st7{fill:#FFFFFF;stroke:#AD8BD6;stroke-width:6;}
	.st8{fill-rule:evenodd;clip-rule:evenodd;fill:#FB91C9;}
	.st9{fill-rule:evenodd;clip-rule:evenodd;fill:#FFFFFF;filter:url(#Adobe_OpacityMaskFilter_1_);}
	.st10{mask:url(#path-11-inside-1_134_78_1_);fill:#AD8BD6;}
	.st11{fill-rule:evenodd;clip-rule:evenodd;fill:#3DF5DD;}
	.st12{fill-rule:evenodd;clip-rule:evenodd;fill:#FFFFFF;filter:url(#Adobe_OpacityMaskFilter_2_);}
	.st13{mask:url(#path-13-inside-2_134_78_1_);fill:#AD8BD6;}
	.st14{fill:#FB91C9;stroke:#AD8BD6;stroke-width:12;}
	.st15{fill-rule:evenodd;clip-rule:evenodd;fill:#34ACD9;fill-opacity:0.19;}
	.st16{fill-rule:evenodd;clip-rule:evenodd;fill:#FFFFFF;filter:url(#Adobe_OpacityMaskFilter_3_);}
	.st17{mask:url(#path-16-inside-3_134_78_1_);fill:#AD8BD6;}
	.st18{fill:#FEFACC;stroke:#AD8BD6;stroke-width:6;}
	.st19{fill:#FEFACC;}
	.st20{fill:#3DF5DD;}
	.st21{fill:#FFFFFF;}
	.st22{fill:none;stroke:#FFFFFF;stroke-width:12;stroke-linecap:round;}
	.st23{fill:#FFFFFF;stroke:#B687D4;stroke-width:12;}
	.st24{fill:#C4C4C4;stroke:#B687D4;stroke-width:12;}
	.st25{fill:#FB91C9;stroke:#B687D4;stroke-width:12;}
	.st26{fill-rule:evenodd;clip-rule:evenodd;fill:#FF9FD0;}
	.st27{fill-rule:evenodd;clip-rule:evenodd;fill:#FFFFFF;filter:url(#Adobe_OpacityMaskFilter_4_);}
	.st28{mask:url(#path-31-inside-4_134_78_1_);fill:#B687D4;}
	.st29{fill:#FCAAD5;}
	.st30{fill:#C0A6DF;}
	.st31{fill:#FDFAD4;stroke:#FDFBDE;stroke-width:2.5358;stroke-linecap:round;stroke-linejoin:round;stroke-miterlimit:7.2452;}
	.st32{fill:none;stroke:#FDFBDE;stroke-width:2.5358;stroke-linecap:round;stroke-linejoin:round;stroke-miterlimit:7.2452;}
	.st33{fill:#FB91C9;}
	.st34{fill:#AD8BD6;}
</style>
<defs>
	<filter id="Adobe_OpacityMaskFilter" filterUnits="userSpaceOnUse" x="108" y="2" width="310" height="320">
		<feColorMatrix  type="matrix" values="1 0 0 0 0  0 1 0 0 0  0 0 1 0 0  0 0 0 1 0"/>
	</filter>
</defs>
<mask maskUnits="userSpaceOnUse" x="108" y="2" width="310" height="320" id="mask0_134_78_1_">
	<rect x="109" class="st0" width="310" height="177"/>
</mask>
<g class="st1">
	<circle class="st2" cx="263" cy="177" r="110"/>
	<circle class="st3" cx="263" cy="177" r="120"/>
	<circle class="st4" cx="263" cy="177" r="130"/>
	<circle class="st5" cx="263" cy="167" r="130"/>
	<circle class="st6" cx="263" cy="167" r="140"/>
	<circle class="st2" cx="263" cy="167" r="150"/>
	<circle class="st7" cx="280" cy="15" r="10"/>
	<circle class="st7" cx="216" cy="78" r="9"/>
</g>
<path class="st8" d="M0,753c0-33.7,27.3-61,61-61h198h204.9c34.9,0,63.1,28.3,63.1,63.1v314.8c0,34.9-28.3,63.1-63.1,63.1H259H61
	c-33.7,0-61-27.3-61-61V753z M470,952v-36.5c0-56.1-45.4-101.5-101.5-101.5S267,859.4,267,915.5V952c0,14.9,12.1,27,27,27h149
	C457.9,979,470,966.9,470,952z"/>
<defs>
	<filter id="Adobe_OpacityMaskFilter_1_" filterUnits="userSpaceOnUse" x="-12" y="680" width="551" height="465">
		<feColorMatrix  type="matrix" values="1 0 0 0 0  0 1 0 0 0  0 0 1 0 0  0 0 0 1 0"/>
	</filter>
</defs>
<mask maskUnits="userSpaceOnUse" x="-12" y="680" width="551" height="465" id="path-11-inside-1_134_78_1_">
	<path class="st9" d="M0,753c0-33.7,27.3-61,61-61h198h204.9c34.9,0,63.1,28.3,63.1,63.1v314.8c0,34.9-28.3,63.1-63.1,63.1H259H61
		c-33.7,0-61-27.3-61-61V753z M470,952v-36.5c0-56.1-45.4-101.5-101.5-101.5S267,859.4,267,915.5V952c0,14.9,12.1,27,27,27h149
		C457.9,979,470,966.9,470,952z"/>
</mask>
<path class="st10" d="M61,680c-40.3,0-73,32.7-73,73h24c0-27.1,21.9-49,49-49V680z M259,680H61v24h198V680z M463.9,680H259v24h204.9
	V680z M539,755.1c0-41.5-33.6-75.1-75.1-75.1v24c28.2,0,51.1,22.9,51.1,51.1H539z M539,1069.9V755.1h-24v314.8H539z M463.9,1145
	c41.5,0,75.1-33.6,75.1-75.1h-24c0,28.2-22.9,51.1-51.1,51.1V1145z M259,1145h204.9v-24H259V1145z M61,1145h198v-24H61V1145z
	 M-12,1072c0,40.3,32.7,73,73,73v-24c-27.1,0-49-21.9-49-49H-12z M-12,753v319h24V753H-12z M458,915.5V952h24v-36.5H458z M368.5,826
	c49.4,0,89.5,40.1,89.5,89.5h24c0-62.7-50.8-113.5-113.5-113.5V826z M279,915.5c0-49.4,40.1-89.5,89.5-89.5v-24
	C305.8,802,255,852.8,255,915.5H279z M279,952v-36.5h-24V952H279z M294,967c-8.3,0-15-6.7-15-15h-24c0,21.5,17.5,39,39,39V967z
	 M443,967H294v24h149V967z M458,952c0,8.3-6.7,15-15,15v24c21.5,0,39-17.5,39-39H458z"/>
<path class="st11" d="M64.8,1116c-10.3,0-19.9,4.9-25.9,13.2l-6.7,9.3l-7.9,11.5l-11.4,16.5l-5.9,9.5l-4.9,9.5l-1.5,4L0,1194v5.5
	l1,5.5l2.5,4h189.3h2h328.8l2.5-4l1-5.5v-5.5l-0.5-4.5l-1.5-4l-4.9-9.5l-5.9-9.5l-11.4-16.5l-7.9-11.5l-6.7-9.3
	c-6-8.3-15.7-13.2-25.9-13.2H194.8h-2H64.8z"/>
<defs>
	<filter id="Adobe_OpacityMaskFilter_2_" filterUnits="userSpaceOnUse" x="-12" y="1104" width="551" height="117">
		<feColorMatrix  type="matrix" values="1 0 0 0 0  0 1 0 0 0  0 0 1 0 0  0 0 0 1 0"/>
	</filter>
</defs>
<mask maskUnits="userSpaceOnUse" x="-12" y="1104" width="551" height="117" id="path-13-inside-2_134_78_1_">
	<path class="st12" d="M64.8,1116c-10.3,0-19.9,4.9-25.9,13.2l-6.7,9.3l-7.9,11.5l-11.4,16.5l-5.9,9.5l-4.9,9.5l-1.5,4L0,1194v5.5
		l1,5.5l2.5,4h189.3h2h328.8l2.5-4l1-5.5v-5.5l-0.5-4.5l-1.5-4l-4.9-9.5l-5.9-9.5l-11.4-16.5l-7.9-11.5l-6.7-9.3
		c-6-8.3-15.7-13.2-25.9-13.2H194.8h-2H64.8z"/>
</mask>
<path class="st13" d="M38.9,1129.2l-9.7-7l0,0L38.9,1129.2z M32.1,1138.5l-9.7-7l-0.1,0.1l-0.1,0.1L32.1,1138.5z M24.2,1150l9.9,6.8
	l0,0L24.2,1150z M12.9,1166.5l-9.9-6.8l-0.2,0.2l-0.1,0.2L12.9,1166.5z M6.9,1176l-10.2-6.4l-0.2,0.4l-0.2,0.4L6.9,1176z M2,1185.5
	l-10.6-5.5l-0.3,0.7l-0.3,0.7L2,1185.5z M0.5,1189.5l-11.3-4.2l-0.5,1.4l-0.2,1.5L0.5,1189.5z M0,1194l-11.9-1.3l-0.1,0.7v0.7H0z
	 M0,1199.5h-12v1.1l0.2,1.1L0,1199.5z M1,1205l-11.8,2.1l0.4,2.3l1.2,1.9L1,1205z M3.5,1209l-10.2,6.3l3.5,5.7h6.7V1209z
	 M523.5,1209v12h6.7l3.5-5.7L523.5,1209z M526,1205l10.2,6.3l1.2-1.9l0.4-2.3L526,1205z M527,1199.5l11.8,2.1l0.2-1.1v-1.1H527z
	 M527,1194h12v-0.7l-0.1-0.7L527,1194z M526.5,1189.5l11.9-1.3l-0.2-1.5l-0.5-1.4L526.5,1189.5z M525,1185.5l11.3-4.2l-0.3-0.7
	l-0.3-0.7L525,1185.5z M520.1,1176l10.6-5.5l-0.2-0.4l-0.2-0.4L520.1,1176z M514.1,1166.5l10.2-6.4l-0.1-0.2l-0.2-0.2L514.1,1166.5z
	 M502.8,1150l-9.9,6.8l0,0L502.8,1150z M494.9,1138.5l9.9-6.8l-0.1-0.1l-0.1-0.1L494.9,1138.5z M488.1,1129.2l-9.7,7l0,0
	L488.1,1129.2z M48.6,1136.3c3.8-5.2,9.8-8.3,16.2-8.3v-24c-14.1,0-27.3,6.8-35.6,18.2L48.6,1136.3z M41.8,1145.5l6.7-9.3
	l-19.4-14.1l-6.7,9.3L41.8,1145.5z M34.1,1156.8l7.9-11.5l-19.8-13.6l-7.9,11.5L34.1,1156.8z M22.7,1173.3l11.4-16.5l-19.8-13.6
	L3,1159.7L22.7,1173.3z M17.1,1182.4l5.9-9.5l-20.4-12.7l-5.9,9.5L17.1,1182.4z M12.6,1191l4.9-9.5l-21.3-11.1l-4.9,9.5L12.6,1191z
	 M11.7,1193.7l1.5-4l-22.5-8.3l-1.5,4L11.7,1193.7z M11.9,1195.3l0.5-4.5l-23.9-2.6l-0.5,4.5L11.9,1195.3z M12,1199.5v-5.5h-24v5.5
	H12z M12.8,1202.9l-1-5.5l-23.6,4.2l1,5.5L12.8,1202.9z M13.7,1202.7l-2.5-4l-20.4,12.6l2.5,4L13.7,1202.7z M192.8,1197H3.5v24
	h189.3V1197z M192.8,1221h2v-24h-2V1221z M194.8,1221h328.8v-24H194.8V1221z M533.7,1215.3l2.5-4l-20.4-12.6l-2.5,4L533.7,1215.3z
	 M537.8,1207.1l1-5.5l-23.6-4.2l-1,5.5L537.8,1207.1z M539,1199.5v-5.5h-24v5.5H539z M538.9,1192.7l-0.5-4.5l-23.9,2.6l0.5,4.5
	L538.9,1192.7z M537.8,1185.3l-1.5-4l-22.5,8.3l1.5,4L537.8,1185.3z M535.7,1180l-4.9-9.5l-21.3,11.1l4.9,9.5L535.7,1180z
	 M530.3,1169.6l-5.9-9.5l-20.4,12.7l5.9,9.5L530.3,1169.6z M524,1159.7l-11.4-16.5l-19.8,13.6l11.4,16.5L524,1159.7z M512.7,1143.2
	l-7.9-11.5l-19.8,13.6l7.9,11.5L512.7,1143.2z M504.6,1131.5l-6.7-9.3l-19.4,14.1l6.7,9.3L504.6,1131.5z M497.8,1122.2
	c-8.3-11.4-21.5-18.2-35.6-18.2v24c6.4,0,12.4,3.1,16.2,8.3L497.8,1122.2z M462.2,1104H194.8v24h267.4V1104z M194.8,1104h-2v24h2
	V1104z M64.8,1128h128v-24h-128V1128z"/>
<path class="st14" d="M482,264h6v-6v-35c0-24.3-19.7-44-44-44H84c-24.3,0-44,19.7-44,44v35v6h6H482z"/>
<path class="st15" d="M61,258c-33.7,0-61,27.3-61,61v319c0,33.7,27.3,61,61,61h198h204.9c34.9,0,63.1-28.3,63.1-63.1V321.1
	c0-34.9-28.3-63.1-63.1-63.1H259H61z"/>
<defs>
	<filter id="Adobe_OpacityMaskFilter_3_" filterUnits="userSpaceOnUse" x="-12" y="246" width="551" height="465">
		<feColorMatrix  type="matrix" values="1 0 0 0 0  0 1 0 0 0  0 0 1 0 0  0 0 0 1 0"/>
	</filter>
</defs>
<mask maskUnits="userSpaceOnUse" x="-12" y="246" width="551" height="465" id="path-16-inside-3_134_78_1_">
	<path class="st16" d="M61,258c-33.7,0-61,27.3-61,61v319c0,33.7,27.3,61,61,61h198h204.9c34.9,0,63.1-28.3,63.1-63.1V321.1
		c0-34.9-28.3-63.1-63.1-63.1H259H61z"/>
</mask>
<path class="st17" d="M12,319c0-27.1,21.9-49,49-49v-24c-40.3,0-73,32.7-73,73H12z M12,638V319h-24v319H12z M61,687
	c-27.1,0-49-21.9-49-49h-24c0,40.3,32.7,73,73,73V687z M259,687H61v24h198V687z M259,711h204.9v-24H259V711z M463.9,711
	c41.5,0,75.1-33.6,75.1-75.1h-24c0,28.2-22.9,51.1-51.1,51.1V711z M539,635.9V321.1h-24v314.8H539z M539,321.1
	c0-41.5-33.6-75.1-75.1-75.1v24c28.2,0,51.1,22.9,51.1,51.1H539z M463.9,246H259v24h204.9V246z M61,270h198v-24H61V270z"/>
<circle class="st18" cx="418" cy="771" r="10"/>
<circle class="st18" cx="319" cy="771" r="10"/>
<circle class="st18" cx="290.5" cy="789.5" r="6.5"/>
<circle class="st18" cx="447.5" cy="789.5" r="6.5"/>
<path class="st19" d="M242.5,1033h252c2.5,0,4.5,2,4.5,4.5l0,0c0,2.5-2,4.5-4.5,4.5h-252c-2.5,0-4.5-2-4.5-4.5l0,0
	C238,1035,240,1033,242.5,1033z"/>
<path class="st20" d="M244.5,1050h248c3.6,0,6.5,2.9,6.5,6.5l0,0c0,3.6-2.9,6.5-6.5,6.5h-248c-3.6,0-6.5-2.9-6.5-6.5l0,0
	C238,1052.9,240.9,1050,244.5,1050z"/>
<path class="st21" d="M57.5,283h334c4.1,0,7.5,3.4,7.5,7.5l0,0c0,4.1-3.4,7.5-7.5,7.5h-334c-4.1,0-7.5-3.4-7.5-7.5l0,0
	C50,286.4,53.4,283,57.5,283z"/>
<path class="st22" d="M437.5,290c19.5-1.3,58.5,2.5,58.5,28.5"/>
<path class="st23" d="M83,972h101c9.9,0,18,8.1,18,18v31c0,9.9-8.1,18-18,18H83c-9.9,0-18-8.1-18-18v-31C65,980.1,73.1,972,83,972z"
	/>
<circle class="st24" cx="134.5" cy="880.5" r="62.5"/>
<circle class="st25" cx="132.5" cy="871.5" r="62.5"/>
<path class="st22" d="M35.5,562v46.5c1.2,18.7,10.6,56,39,56s51.2,0,59,0"/>
<path class="st26" d="M470,947v-36.5c0-4.6-0.3-9.2-0.9-13.6c8.2,15.7,12.9,33.6,12.9,52.6V986c0,21.5-17.5,39-39,39H294
	c-21.5,0-39-17.5-39-39v-36.5c0-19,4.7-36.9,12.9-52.6c-0.6,4.5-0.9,9-0.9,13.6V947c0,14.9,12.1,27,27,27h149
	C457.9,974,470,961.9,470,947z"/>
<defs>
	<filter id="Adobe_OpacityMaskFilter_4_" filterUnits="userSpaceOnUse" x="243" y="891.3" width="251" height="145.7">
		<feColorMatrix  type="matrix" values="1 0 0 0 0  0 1 0 0 0  0 0 1 0 0  0 0 0 1 0"/>
	</filter>
</defs>
<mask maskUnits="userSpaceOnUse" x="243" y="891.3" width="251" height="145.7" id="path-31-inside-4_134_78_1_">
	<path class="st27" d="M470,947v-36.5c0-4.6-0.3-9.2-0.9-13.6c8.2,15.7,12.9,33.6,12.9,52.6V986c0,21.5-17.5,39-39,39H294
		c-21.5,0-39-17.5-39-39v-36.5c0-19,4.7-36.9,12.9-52.6c-0.6,4.5-0.9,9-0.9,13.6V947c0,14.9,12.1,27,27,27h149
		C457.9,974,470,961.9,470,947z"/>
</mask>
<path class="st28" d="M469.1,896.9l10.6-5.6l-22.5,7.2L469.1,896.9z M267.9,896.9l11.9,1.6l-22.5-7.2L267.9,896.9z M458,910.5V947
	h24v-36.5H458z M457.2,898.5c0.5,3.9,0.8,7.9,0.8,12h24c0-5.2-0.3-10.2-1-15.2L457.2,898.5z M458.5,902.5c7.4,14.1,11.5,30,11.5,47
	h24c0-21-5.2-40.8-14.3-58.2L458.5,902.5z M470,949.5V986h24v-36.5H470z M470,986c0,14.9-12.1,27-27,27v24c28.2,0,51-22.8,51-51H470
	z M443,1013H294v24h149V1013z M294,1013c-14.9,0-27-12.1-27-27h-24c0,28.2,22.8,51,51,51V1013z M267,986v-36.5h-24V986H267z
	 M267,949.5c0-17,4.2-33,11.5-47l-21.3-11.1c-9.1,17.4-14.3,37.2-14.3,58.2H267z M279,910.5c0-4.1,0.3-8.1,0.8-12l-23.8-3.2
	c-0.7,5-1,10.1-1,15.2H279z M279,947v-36.5h-24V947H279z M294,962c-8.3,0-15-6.7-15-15h-24c0,21.5,17.5,39,39,39V962z M443,962H294
	v24h149V962z M458,947c0,8.3-6.7,15-15,15v24c21.5,0,39-17.5,39-39H458z"/>
<g transform="matrix(0, 0.724516093731, -0.724516093731, 0, -47.212193762009, -60.460557866156)">
	<g>
		<path class="st29" d="M211.4-589.3c0,8.1-6.1,15-16.3,18.4c3.5,5,5.4,10.1,5.4,14.9c0,5.4-2.3,10-6.5,13.1c-4.1,3-9,3.8-14,2.3
			c-4.7-1.4-9.2-4.8-12.9-9.9c-9,12.2-20,12.6-26.9,7.6c-4.2-3-6.5-7.7-6.5-13.1c0-4.8,1.9-9.9,5.4-14.9
			c-10.2-3.4-16.3-10.3-16.3-18.4c0-1.6,0.3-3.3,0.8-4.9c2.6-7.9,11.9-14.2,26.3-9.7c0.1-15.1,9-22,17.3-22c8.3,0,17.2,6.9,17.3,22
			c6-1.9,11.6-2,16.3-0.4c4.9,1.7,8.5,5.3,10,10.1C211.1-592.6,211.4-591,211.4-589.3L211.4-589.3z"/>
		<g>
			<path class="st30" d="M127.5-589.3c0-1.1,0.2-2.3,0.5-3.4c2.1-6.6,9.7-10,20.5-6.5c3.2,1,6.1,3.1,8.6,5.6
				c-1.5-3.2-2.6-6.6-2.6-9.9c0-11.3,5.6-17.5,12.5-17.5c6.9,0,12.5,6.2,12.5,17.5c0,0,0,0,0,0c0,3.3-1.1,6.8-2.6,9.9
				c2.5-2.4,5.4-4.5,8.6-5.6c10.8-3.5,18.4-0.1,20.5,6.5c0.4,1.1,0.5,2.2,0.5,3.4c0,5.5-4.4,11-13.3,13.9c-3.2,1-6.8,1-10.2,0.6
				c3.1,1.7,6,3.8,8,6.5c3.2,4.4,4.7,8.7,4.7,12.3c0,3.9-1.6,7.1-4.5,9.2c-5.6,4.1-13.7,2.3-20.4-6.8c-2-2.7-3.1-6.1-3.7-9.6
				c-0.6,3.4-1.7,6.9-3.7,9.6c-6.7,9.2-14.8,10.9-20.4,6.8c-2.9-2.1-4.5-5.3-4.5-9.2c0-3.7,1.5-7.9,4.7-12.3c2-2.7,4.9-4.8,7.9-6.5
				c-3.5,0.5-7.1,0.5-10.2-0.6C131.8-578.3,127.5-583.8,127.5-589.3 M117.8-589.3C117.8-589.3,117.8-589.3,117.8-589.3
				c0,8.5,5.3,16.1,14.1,20.7c-2.1,4.2-3.2,8.5-3.2,12.6c0,0,0,0,0,0c0,6.9,3.1,13.1,8.5,17c7.6,5.5,19.6,6.1,29.8-4.1
				c3.5,3.5,7.4,5.9,11.5,7.1c6.4,1.9,13,0.8,18.2-3c5.4-3.9,8.5-10.1,8.5-17c0-4.1-1.1-8.4-3.2-12.6c8.9-4.6,14.1-12.2,14.1-20.7
				c0-2.1-0.3-4.3-1-6.3c-2-6.2-6.7-10.9-13-13.2c-4.1-1.4-8.6-1.8-13.5-1c-2.3-14.3-12.3-20.8-21.7-20.8c-9.4,0-19.4,6.6-21.7,20.8
				c-14.3-2.2-23.6,5.3-26.5,14.2C118.2-593.6,117.8-591.5,117.8-589.3L117.8-589.3L117.8-589.3z"/>
		</g>
	</g>
	<g transform="matrix(1, 0, 0, 1, 348.364075, 53.15295)">
		<circle class="st31" cx="-181.3" cy="-633.2" r="6"/>
		<line class="st32" x1="-181.3" y1="-639.2" x2="-181.3" y2="-648.2"/>
		<line class="st32" x1="-187.1" y1="-635" x2="-195.6" y2="-637.8"/>
		<line class="st32" x1="-184.9" y1="-628.3" x2="-190.2" y2="-621.1"/>
		<line class="st32" x1="-177.8" y1="-628.3" x2="-172.5" y2="-621.1"/>
		<line class="st32" x1="-175.6" y1="-635" x2="-167.1" y2="-637.8"/>
	</g>
</g>
<g transform="matrix(0, 0.724516093731, -0.724516093731, 0, -47.212193762009, -60.460557866156)">
	<g>
		<path class="st33" d="M1167.9-587.1c0,4.8-2.7,9.5-7.6,13.3c4.9,3.8,7.6,8.5,7.6,13.3c0,2.6-0.8,5.1-2.3,7.2
			c-3.7,5.1-11.8,7.6-21.1,1.3c-3.8,10.5-11.8,13.3-17.9,11.3c-5.4-1.8-8.8-6.8-8.8-13.3c0-2,0.3-4.2,1-6.4
			c-11.2-0.4-16.3-7.2-16.3-13.5c0-3.9,1.8-7.4,5-9.9c2.9-2.2,6.8-3.4,11.3-3.6c-0.6-2.2-1-4.4-1-6.4c0-6.4,3.4-11.5,8.8-13.2
			c6-2,14.1,0.8,17.9,11.3c9.3-6.3,17.4-3.8,21.1,1.3C1167.1-592.1,1167.9-589.6,1167.9-587.1z"/>
		<path class="st34" d="M1106.6-573.8c0-5.2,4.6-9.4,13.1-9.4c2.5,0,5.1,0.8,7.4,2c-1.8-1.9-3.4-4.1-4.2-6.5c-0.7-2.2-1-4.2-1-6.1
			c0-4.8,2.3-8.2,5.9-9.3c4.9-1.6,10.3,1.5,13,9.6c0.5,1.4,0.6,3,0.6,4.5c0,1-0.1,2.1-0.2,3.2c1.2-2.3,2.8-4.5,4.8-6
			c6.9-5,13.1-4.3,16.1-0.1c1,1.4,1.6,3,1.6,4.7c0,3.4-2.1,7.2-6.7,10.5c-2,1.5-4.6,2.3-7.2,2.8c2.6,0.5,5.1,1.3,7.2,2.8
			c4.6,3.3,6.7,7.1,6.7,10.5c0,1.7-0.5,3.3-1.6,4.7c-3,4.2-9.3,4.9-16.1-0.1c-2-1.5-3.6-3.6-4.8-6c0.1,1,0.2,2.1,0.2,3.2
			c0,1.6-0.2,3.1-0.7,4.5c-2.6,8.1-8,11.2-13,9.6c-3.6-1.2-5.9-4.5-5.9-9.3c0-1.8,0.3-3.8,1-6.1c0.8-2.4,2.3-4.6,4.2-6.5
			c-2.4,1.2-4.9,2-7.4,2C1111.3-564.4,1106.6-568.6,1106.6-573.8 M1098.3-573.8c0,7.3,4.9,15,15.5,17.1c-0.1,1-0.2,1.9-0.2,2.8
			c0,8.3,4.5,14.9,11.6,17.2c6.9,2.2,15.8,0,21-9.4c9.8,4.5,18.3,1.1,22.6-4.7c2.1-2.8,3.1-6.1,3.1-9.6c0-4.7-2-9.3-5.6-13.3
			c3.7-4,5.6-8.6,5.6-13.3c0-3.5-1.1-6.8-3.1-9.6c-4.3-5.9-12.8-9.3-22.6-4.7c-5.3-9.4-14.1-11.7-21-9.4
			c-7.2,2.3-11.6,8.9-11.6,17.2c0,0.9,0.1,1.9,0.2,2.8c-3.4,0.7-6.4,2-8.9,3.9C1100.8-583.7,1098.3-578.9,1098.3-573.8L1098.3-573.8
			z"/>
	</g>
	<g transform="matrix(1, 0, 0, 1, 348.364075, 53.15295)">
		<circle class="st31" cx="785.2" cy="-626.9" r="5.3"/>
		<line class="st32" x1="779.9" y1="-626.9" x2="772" y2="-626.9"/>
		<line class="st32" x1="783.6" y1="-621.9" x2="781.1" y2="-614.3"/>
		<line class="st32" x1="789.5" y1="-623.8" x2="795.9" y2="-619.1"/>
		<line class="st32" x1="789.5" y1="-630" x2="795.9" y2="-634.7"/>
		<line class="st32" x1="783.6" y1="-631.9" x2="781.1" y2="-639.5"/>
	</g>
</g>
</svg>
